# This file uses centimeters as units for non-parametric coordinates.

mtllib Eyes-Angry-OBJ.mtl
g default
v 2.077215 9.349708 -1.008379
v 2.006360 9.349708 -1.237682
v 2.196047 8.627208 -0.623821
v 2.266903 8.627208 -0.394519
v 1.966973 9.349708 1.213613
v 2.042945 9.349708 0.983321
v 2.244233 8.627208 0.373166
v 2.169044 8.627208 0.601084
v 2.077209 9.362207 -1.002504
v 1.996475 9.362207 -1.263770
v 2.192726 8.614708 -0.628668
v 2.273459 8.614708 -0.367402
v 2.072866 9.374708 -0.995288
v 1.982256 9.374708 -1.288519
v 2.185071 8.602208 -0.632176
v 2.275681 8.602208 -0.338946
v 2.061510 9.387208 -0.985906
v 1.961022 9.387208 -1.311100
v 2.170400 8.589707 -0.633516
v 2.270888 8.589707 -0.308322
v 2.036071 9.399708 -0.972172
v 1.925707 9.399708 -1.329330
v 2.141649 8.577208 -0.630505
v 2.252013 8.577208 -0.273347
v 2.036071 9.399708 -0.972172
v 1.925707 9.399708 -1.329330
v 2.141649 8.577208 -0.630505
v 2.252013 8.577208 -0.273347
v 2.007319 9.387208 -0.969160
v 1.906832 9.387208 -1.294355
v 2.116210 8.589707 -0.616771
v 2.216698 8.589707 -0.291577
v 1.992649 9.374708 -0.970501
v 1.902039 9.374708 -1.263731
v 2.104854 8.602208 -0.607388
v 2.195464 8.602208 -0.314158
v 1.984994 9.362207 -0.974009
v 1.904261 9.362207 -1.235275
v 2.100512 8.614708 -0.600173
v 2.181245 8.614708 -0.338907
v 1.981673 9.349708 -0.978856
v 1.910817 9.349708 -1.208158
v 2.100504 8.627208 -0.594297
v 2.171360 8.627208 -0.364995
v 1.956573 9.362207 1.239578
v 2.043049 9.362207 0.977446
v 2.251302 8.614708 0.346178
v 2.165636 8.614708 0.605853
v 1.941865 9.374708 1.264121
v 2.038845 9.374708 0.970150
v 2.254062 8.602208 0.317769
v 2.157920 8.602208 0.609202
v 1.920185 9.387208 1.286364
v 2.027668 9.387208 0.960554
v 2.249850 8.589707 0.287060
v 2.143231 8.589707 0.610250
v 1.884508 9.399708 1.303990
v 2.002495 9.399708 0.946340
v 2.231642 8.577208 0.251734
v 2.114547 8.577208 0.606681
v 1.884508 9.399708 1.303990
v 2.002495 9.399708 0.946340
v 2.231642 8.577208 0.251734
v 2.114546 8.577208 0.606681
v 1.866322 9.387208 1.268595
v 1.973805 9.387208 0.942784
v 2.195987 8.589707 0.269291
v 2.089368 8.589707 0.592481
v 1.862132 9.374708 1.237818
v 1.959112 9.374708 0.943847
v 2.174330 8.602208 0.291466
v 2.078187 8.602208 0.582898
v 1.864916 9.362207 1.209340
v 1.951391 9.362207 0.947209
v 2.159644 8.614708 0.315941
v 2.073978 8.614708 0.575616
v 1.872007 9.349708 1.182284
v 1.947979 9.349708 0.951992
v 2.149267 8.627208 0.341837
v 2.074078 8.627208 0.569755
vt 0.118442 0.321436
vt 0.118442 0.469030
vt 0.106145 0.481104
vt 0.106145 0.319003
vt 0.124348 0.323870
vt 0.124348 0.456957
vt 0.106145 0.481104
vt 0.106145 0.319003
vt 0.118442 0.013905
vt 0.106145 0.001831
vt 0.093847 0.469030
vt 0.093847 0.321436
vt 0.106145 0.001831
vt 0.087941 0.456957
vt 0.087941 0.323870
vt 0.093847 0.013905
vt 0.136724 0.161499
vt 0.136724 0.013905
vt 0.149022 0.001831
vt 0.149022 0.163933
vt 0.130818 0.159066
vt 0.130818 0.025979
vt 0.149022 0.001831
vt 0.149022 0.163933
vt 0.136724 0.469031
vt 0.149022 0.481104
vt 0.161319 0.013905
vt 0.161319 0.161499
vt 0.149022 0.481104
vt 0.167225 0.025979
vt 0.167225 0.159066
vt 0.161319 0.469031
vt 0.032493 0.013936
vt 0.032493 0.162708
vt 0.020196 0.165142
vt 0.020196 0.001831
vt 0.038400 0.026041
vt 0.038400 0.160275
vt 0.032493 0.470239
vt 0.020196 0.482313
vt 0.020196 0.165142
vt 0.020196 0.001831
vt 0.020196 0.482313
vt 0.007898 0.162708
vt 0.007898 0.013936
vt 0.007898 0.470239
vt 0.001992 0.160275
vt 0.001992 0.026041
vt 0.050970 0.470239
vt 0.050970 0.322664
vt 0.063268 0.320237
vt 0.063268 0.482313
vt 0.045064 0.458165
vt 0.045064 0.325091
vt 0.050970 0.013936
vt 0.063268 0.001831
vt 0.063268 0.320237
vt 0.063268 0.482313
vt 0.063268 0.001831
vt 0.075565 0.322664
vt 0.075565 0.470239
vt 0.075565 0.013936
vt 0.081472 0.325091
vt 0.081472 0.458165
vt 0.981747 0.498347
vt 0.981747 0.602420
vt 0.668446 0.881030
vt 0.668446 0.776957
vt 0.987167 0.486274
vt 0.987167 0.604853
vt 0.663026 0.893104
vt 0.663026 0.774524
vt 0.992588 0.474200
vt 0.992588 0.607287
vt 0.657605 0.905178
vt 0.657605 0.772091
vt 0.998008 0.609720
vt 0.652185 0.917251
vt 0.652185 0.769657
vt 0.998008 0.462126
vt 0.640629 0.772091
vt 0.640629 0.905178
vt 0.635209 0.893104
vt 0.635209 0.774524
vt 0.305647 0.607287
vt 0.311067 0.604853
vt 0.629788 0.881030
vt 0.629788 0.776958
vt 0.305647 0.474200
vt 0.311067 0.486274
vt 0.646050 0.917252
vt 0.300226 0.609720
vt 0.316488 0.602420
vt 0.316488 0.498348
vt 0.300226 0.462126
vt 0.646050 0.769657
vt 0.503257 0.317840
vt 0.503257 0.421913
vt 0.189956 0.143303
vt 0.189956 0.038146
vt 0.508677 0.315413
vt 0.508677 0.433986
vt 0.184536 0.145736
vt 0.184536 0.026041
vt 0.514098 0.312986
vt 0.514098 0.446060
vt 0.179115 0.148169
vt 0.179115 0.013936
vt 0.519518 0.458134
vt 0.173695 0.150603
vt 0.173695 0.001831
vt 0.519518 0.310559
vt 0.866858 0.013936
vt 0.866858 0.148169
vt 0.861438 0.145736
vt 0.861438 0.026041
vt 0.531875 0.446060
vt 0.537296 0.433986
vt 0.856017 0.143303
vt 0.856017 0.038146
vt 0.531875 0.312986
vt 0.537296 0.315413
vt 0.872278 0.150603
vt 0.526455 0.458134
vt 0.542716 0.421913
vt 0.542716 0.317840
vt 0.526455 0.310559
vt 0.872278 0.001831
vn 0.960661 0.009958 -0.277546
vn 0.953631 -0.007347 -0.300888
vn 0.949769 -0.009964 -0.312793
vn 0.957134 0.007346 -0.289553
vn 0.841050 -0.129040 -0.525341
vn 0.962233 0.259224 -0.083128
vn 0.841385 -0.259238 -0.474202
vn 0.990804 0.129039 -0.040709
vn 0.673168 0.709633 -0.208004
vn 0.854814 0.499743 0.139819
vn 0.626927 -0.499733 -0.597687
vn 0.518935 -0.470254 -0.713840
vn 0.673182 -0.709616 -0.208017
vn 0.831172 0.470269 0.296650
vn 0.419254 0.898578 -0.129552
vn 0.464079 0.874109 -0.143402
vn 0.275514 -0.579394 -0.767069
vn 0.223291 -0.596431 -0.770981
vn 0.419257 -0.898576 -0.129556
vn 0.464088 -0.874103 -0.143408
vn 0.660217 0.579398 0.477925
vn 0.619307 0.596431 0.510616
vn 0.385350 0.915055 -0.119077
vn 0.385350 0.915055 -0.119077
vn 0.183478 -0.608078 -0.772384
vn 0.183479 -0.608077 -0.772385
vn 0.385348 -0.915056 -0.119079
vn 0.385348 -0.915056 -0.119079
vn 0.587231 0.608075 0.534233
vn 0.587230 0.608070 0.534239
vn -0.385349 0.915057 0.119067
vn -0.385349 0.915057 0.119067
vn -0.587229 -0.608077 -0.534233
vn -0.587232 -0.608075 -0.534231
vn -0.385352 -0.915055 0.119075
vn -0.385352 -0.915055 0.119075
vn -0.183477 0.608075 0.772387
vn -0.183476 0.608066 0.772394
vn -0.419253 0.898579 0.129545
vn -0.464079 0.874110 0.143398
vn -0.660223 -0.579395 -0.477919
vn -0.619312 -0.596430 -0.510611
vn -0.419261 -0.898574 0.129554
vn -0.464092 -0.874101 0.143408
vn -0.275505 0.579397 0.767069
vn -0.223285 0.596431 0.770983
vn -0.673172 0.709625 0.208017
vn -0.626923 0.499740 0.597686
vn -0.854819 -0.499736 -0.139817
vn -0.831180 -0.470260 -0.296641
vn -0.673185 -0.709612 0.208022
vn -0.518923 0.470268 0.713839
vn -0.990803 -0.129046 0.040696
vn -0.841389 0.259226 0.474202
vn -0.962231 -0.259236 0.083120
vn -0.841048 0.129037 0.525346
vn -0.960661 -0.009958 0.277546
vn -0.953631 0.007347 0.300887
vn -0.957134 -0.007346 0.289553
vn -0.949770 0.009959 0.312792
vn 0.947769 -0.007323 0.318873
vn 0.955207 0.009922 0.295772
vn 0.951465 0.007331 0.307669
vn 0.943687 -0.009935 0.330691
vn 0.960388 0.259426 0.101752
vn 0.831390 -0.128687 0.540583
vn 0.989851 0.129057 0.059485
vn 0.832343 -0.259521 0.489749
vn 0.857180 0.500139 -0.122892
vn 0.669059 0.709678 0.220720
vn 0.836642 0.470266 -0.280856
vn 0.615626 -0.500276 0.608875
vn 0.669123 -0.709611 0.220739
vn 0.505517 -0.471321 0.722710
vn 0.461308 0.874090 0.152188
vn 0.416663 0.898608 0.137460
vn 0.628876 0.596429 -0.498786
vn 0.669158 0.579395 -0.465328
vn 0.461336 -0.874074 0.152195
vn 0.416730 -0.898574 0.137481
vn 0.208912 -0.597751 0.773983
vn 0.261332 -0.580632 0.771085
vn 0.383026 0.915056 0.126345
vn 0.383023 0.915055 0.126363
vn 0.597258 0.608078 -0.522995
vn 0.597255 0.608075 -0.523003
vn 0.383022 -0.915058 0.126347
vn 0.383018 -0.915062 0.126326
vn 0.169174 -0.609394 0.774609
vn 0.169174 -0.609394 0.774609
vn -0.383021 0.915056 -0.126365
vn -0.383023 0.915050 -0.126399
vn -0.168802 0.608078 -0.775723
vn -0.168800 0.608080 -0.775722
vn -0.383022 -0.915056 -0.126362
vn -0.383023 -0.915056 -0.126357
vn -0.596887 -0.609390 0.521891
vn -0.596885 -0.609393 0.521890
vn -0.461307 0.874091 -0.152186
vn -0.416661 0.898610 -0.137457
vn -0.208632 0.596431 -0.775076
vn -0.260919 0.579396 -0.772154
vn -0.461336 -0.874075 -0.152191
vn -0.416730 -0.898575 -0.137474
vn -0.628447 -0.597751 0.497743
vn -0.668853 -0.580633 0.464222
vn -0.615798 0.500134 -0.608818
vn -0.669059 0.709678 -0.220722
vn -0.505308 0.470261 -0.723546
vn -0.857080 -0.500276 0.123036
vn -0.669123 -0.709610 -0.220743
vn -0.836321 -0.471322 0.280042
vn -0.832402 0.259423 -0.489702
vn -0.989854 -0.128683 -0.060242
vn -0.830929 0.129051 -0.541205
vn -0.960373 -0.259516 -0.101660
vn -0.947767 0.007331 -0.318878
vn -0.955214 -0.009935 -0.295749
vn -0.943696 0.009924 -0.330664
vn -0.951463 -0.007323 -0.307675
s 1
g eyes_angry_2 group1
usemtl typeBlinn5SG
f 4/65/1 3/66/2 2/67/3 1/68/4
f 1/68/4 2/67/3 10/71/5 9/72/6
f 2/67/3 3/66/2 11/70/7 10/71/5
f 3/66/2 4/65/1 12/69/8 11/70/7
f 4/65/1 1/68/4 9/72/6 12/69/8
f 9/72/6 10/71/5 14/75/9 13/76/10
f 10/71/5 11/70/7 15/74/11 14/75/12
f 11/70/7 12/69/8 16/73/13 15/74/11
f 12/69/8 9/72/6 13/76/10 16/73/14
f 13/5/10 14/6/9 18/2/15 17/1/16
f 14/75/12 15/74/11 19/77/17 18/78/18
f 15/21/11 16/22/13 20/18/19 19/17/20
f 16/73/14 13/76/10 17/79/21 20/80/22
f 17/1/16 18/2/15 22/3/23 21/4/24
f 18/25/18 19/17/17 23/20/25 22/26/26
f 19/17/20 20/18/19 24/19/27 23/20/28
f 20/9/22 17/1/21 21/4/29 24/10/30
f 21/4/24 22/3/23 26/7/31 25/8/32
f 22/26/26 23/20/25 27/24/33 26/29/34
f 23/20/28 24/19/27 28/23/35 27/24/36
f 24/10/30 21/4/29 25/8/37 28/13/38
f 25/8/32 26/7/31 30/11/39 29/12/40
f 26/29/34 27/24/33 31/28/41 30/32/42
f 27/24/36 28/23/35 32/27/43 31/28/44
f 28/13/38 25/8/37 29/12/45 32/16/46
f 29/12/40 30/11/39 34/14/47 33/15/48
f 30/91/42 31/92/41 35/85/49 34/82/50
f 31/28/44 32/27/43 36/30/51 35/31/49
f 32/95/46 29/96/45 33/81/48 36/89/52
f 33/81/48 34/82/47 38/83/53 37/84/54
f 34/82/50 35/85/49 39/86/55 38/83/53
f 35/85/49 36/89/51 40/90/56 39/86/55
f 36/89/52 33/81/48 37/84/54 40/90/56
f 37/84/54 38/83/53 42/87/57 41/88/58
f 38/83/53 39/86/55 43/93/59 42/87/57
f 39/86/55 40/90/56 44/94/60 43/93/59
f 40/90/56 37/84/54 41/88/58 44/94/60
f 41/88/58 42/87/57 43/93/59 44/94/60
s 2
f 8/97/61 7/98/62 6/99/63 5/100/64
f 5/100/64 6/99/63 46/103/65 45/104/66
f 6/99/63 7/98/62 47/102/67 46/103/65
f 7/98/62 8/97/61 48/101/68 47/102/67
f 8/97/61 5/100/64 45/104/66 48/101/68
f 45/104/66 46/103/65 50/107/69 49/108/70
f 46/103/65 47/102/67 51/106/71 50/107/69
f 47/102/67 48/101/68 52/105/72 51/106/73
f 48/101/68 45/104/66 49/108/74 52/105/72
f 49/37/70 50/38/69 54/34/75 53/33/76
f 50/107/69 51/106/71 55/109/77 54/110/78
f 51/53/73 52/54/72 56/50/79 55/49/80
f 52/105/72 49/108/74 53/111/81 56/112/82
f 53/33/76 54/34/75 58/35/83 57/36/84
f 54/34/78 55/39/77 59/40/85 58/35/86
f 55/49/80 56/50/79 60/51/87 59/52/88
f 56/50/82 53/55/81 57/56/89 60/51/90
f 57/36/84 58/35/83 62/41/91 61/42/92
f 58/35/86 59/40/85 63/43/93 62/41/94
f 59/52/88 60/51/87 64/57/95 63/58/96
f 60/51/90 57/56/89 61/59/97 64/57/98
f 61/42/92 62/41/91 66/44/99 65/45/100
f 62/41/94 63/43/93 67/46/101 66/44/102
f 63/58/96 64/57/95 68/60/103 67/61/104
f 64/57/98 61/59/97 65/62/105 68/60/106
f 65/45/100 66/44/99 70/47/107 69/48/108
f 66/123/102 67/124/101 71/117/109 70/114/107
f 67/61/104 68/60/103 72/63/110 71/64/111
f 68/127/106 65/128/105 69/113/112 72/121/110
f 69/113/108 70/114/107 74/115/113 73/116/114
f 70/114/107 71/117/109 75/118/115 74/115/113
f 71/117/111 72/121/110 76/122/116 75/118/115
f 72/121/110 69/113/112 73/116/114 76/122/116
f 73/116/114 74/115/113 78/119/117 77/120/118
f 74/115/113 75/118/115 79/125/119 78/119/117
f 75/118/115 76/122/116 80/126/120 79/125/119
f 76/122/116 73/116/114 77/120/118 80/126/120
f 77/120/118 78/119/117 79/125/119 80/126/120
